<?xml version="1.0" encoding="utf-8"?>
<!-- Generator: Adobe Illustrator 15.0.2, SVG Export Plug-In . SVG Version: 6.00 Build 0)  -->
<!DOCTYPE svg PUBLIC "-//W3C//DTD SVG 1.1//EN" "http://www.w3.org/Graphics/SVG/1.1/DTD/svg11.dtd">
<svg version="1.1" id="Layer_1" xmlns="http://www.w3.org/2000/svg" xmlns:xlink="http://www.w3.org/1999/xlink" x="0px" y="0px"
	 width="189.935px" height="196.071px" viewBox="0 0 189.935 196.071" enable-background="new 0 0 189.935 196.071"
	 xml:space="preserve">
<path fill="#FFFFFF" d="M31.248,193.479h18.144v-86.112H80.64v-15.84H0v15.84h31.248V193.479z"/>
<path fill="#FFFFFF" d="M84.455,164.031c2.736,6.577,6.527,12.24,11.376,16.992c4.847,4.752,10.606,8.449,17.28,11.088
	c6.671,2.639,13.943,3.96,21.816,3.96c7.967,0,15.311-1.321,22.032-3.96c6.718-2.639,12.528-6.336,17.424-11.088
	c4.896-4.752,8.712-10.416,11.448-16.992c2.736-6.575,4.104-13.847,4.104-21.816c0-8.159-1.368-15.527-4.104-22.104
	c-2.736-6.575-6.552-12.168-11.448-16.776c-4.896-4.608-10.706-8.159-17.424-10.656c-6.721-2.495-14.065-3.744-22.032-3.744
	c-7.873,0-15.145,1.249-21.816,3.744c-6.674,2.498-12.434,6.048-17.28,10.656c-4.849,4.608-8.64,10.201-11.376,16.776
	c-2.736,6.577-4.104,13.945-4.104,22.104C80.351,150.184,81.719,157.456,84.455,164.031z M102.599,127.527
	c1.679-4.511,4.055-8.447,7.128-11.808c3.071-3.359,6.744-5.999,11.016-7.92c4.271-1.919,9.047-2.88,14.328-2.88
	c5.278,0,10.08,0.96,14.4,2.88c4.32,1.921,8.015,4.561,11.088,7.92c3.071,3.361,5.447,7.297,7.128,11.808
	c1.678,4.513,2.52,9.409,2.52,14.688c0,5.472-0.841,10.489-2.52,15.048c-1.681,4.561-4.082,8.521-7.2,11.88
	c-3.121,3.362-6.84,5.976-11.16,7.848c-4.32,1.872-9.072,2.808-14.256,2.808s-9.914-0.936-14.184-2.808
	c-4.273-1.872-7.969-4.486-11.088-7.848c-3.121-3.359-5.521-7.319-7.2-11.88c-1.681-4.559-2.52-9.576-2.52-15.048
	C100.079,136.936,100.918,132.04,102.599,127.527z"/>
<path fill="#FFFFFF" d="M69.637,9.1c-1.198-1.466-2.676-2.766-4.434-3.9c-1.76-1.133-3.678-2.083-5.753-2.85
	C57.373,1.584,55.209,1,52.958,0.6C50.704,0.2,48.487,0,46.307,0c-4.153,0-8.059,0.55-11.718,1.65c-3.66,1.1-6.862,2.667-9.607,4.7
	c-2.745,2.034-4.909,4.5-6.492,7.4s-2.375,6.15-2.375,9.75c0,2.867,0.475,5.317,1.425,7.35c0.95,2.034,2.217,3.784,3.801,5.25
	c1.583,1.467,3.447,2.7,5.595,3.7c2.146,1,4.45,1.9,6.915,2.7c3.518,1.134,6.334,2.417,8.445,3.85
	c2.111,1.435,3.167,3.384,3.167,5.85c0,1.534-0.335,2.85-1.003,3.95c-0.67,1.1-1.567,2-2.692,2.7c-1.127,0.7-2.412,1.2-3.854,1.5
	c-1.443,0.3-2.939,0.45-4.486,0.45c-2.956,0-5.877-0.666-8.762-2c-2.887-1.333-5.067-3.065-6.545-5.2l-12.985,10
	c1.478,1.8,3.272,3.4,5.384,4.8s4.397,2.55,6.862,3.45c2.463,0.9,5.031,1.583,7.707,2.05c2.674,0.466,5.348,0.7,8.023,0.7
	c3.589,0,7.213-0.435,10.874-1.3c3.658-0.865,6.967-2.25,9.923-4.15c2.956-1.9,5.366-4.35,7.231-7.35
	c1.864-3,2.798-6.633,2.798-10.9c0-2.666-0.458-5.05-1.373-7.15c-0.916-2.1-2.253-3.983-4.012-5.65
	c-1.76-1.666-3.906-3.15-6.439-4.45c-2.534-1.3-5.42-2.483-8.656-3.55c-2.956-1-5.262-2.083-6.915-3.25
	c-1.655-1.166-2.481-2.75-2.481-4.75c0-1.533,0.37-2.833,1.108-3.9c0.739-1.066,1.653-1.95,2.745-2.65c1.09-0.7,2.304-1.2,3.642-1.5
	c1.336-0.3,2.603-0.45,3.8-0.45c2.603,0,4.962,0.467,7.073,1.4c2.111,0.935,3.87,2.3,5.278,4.1L69.637,9.1z"/>
<path fill="#FFFFFF" d="M118.408,72.7l2.745-14.5H91.805l10.557-56.3H84.732L71.536,72.7H118.408z"/>
<path fill="#FFFFFF" d="M186.815,9.1c-1.198-1.466-2.675-2.766-4.434-3.9c-1.76-1.133-3.678-2.083-5.753-2.85
	c-2.077-0.766-4.241-1.35-6.492-1.75c-2.253-0.4-4.47-0.6-6.651-0.6c-4.153,0-8.059,0.55-11.718,1.65
	c-3.66,1.1-6.862,2.667-9.606,4.7c-2.745,2.034-4.909,4.5-6.493,7.4s-2.375,6.15-2.375,9.75c0,2.867,0.475,5.317,1.425,7.35
	c0.95,2.034,2.217,3.784,3.8,5.25c1.583,1.467,3.447,2.7,5.595,3.7c2.146,1,4.45,1.9,6.915,2.7c3.518,1.134,6.334,2.417,8.445,3.85
	c2.111,1.435,3.167,3.384,3.167,5.85c0,1.534-0.335,2.85-1.003,3.95c-0.67,1.1-1.567,2-2.692,2.7c-1.127,0.7-2.412,1.2-3.854,1.5
	c-1.443,0.3-2.939,0.45-4.486,0.45c-2.956,0-5.877-0.666-8.762-2c-2.887-1.333-5.067-3.065-6.545-5.2l-12.985,10
	c1.478,1.8,3.272,3.4,5.384,4.8s4.397,2.55,6.862,3.45c2.463,0.9,5.031,1.583,7.707,2.05c2.674,0.466,5.348,0.7,8.023,0.7
	c3.589,0,7.213-0.435,10.874-1.3c3.659-0.865,6.967-2.25,9.923-4.15s5.366-4.35,7.231-7.35c1.864-3,2.797-6.633,2.797-10.9
	c0-2.666-0.458-5.05-1.373-7.15c-0.915-2.1-2.253-3.983-4.011-5.65c-1.76-1.666-3.906-3.15-6.44-4.45
	c-2.533-1.3-5.42-2.483-8.656-3.55c-2.956-1-5.262-2.083-6.915-3.25c-1.655-1.166-2.481-2.75-2.481-4.75
	c0-1.533,0.37-2.833,1.108-3.9c0.739-1.066,1.653-1.95,2.745-2.65c1.09-0.7,2.305-1.2,3.642-1.5c1.336-0.3,2.603-0.45,3.801-0.45
	c2.603,0,4.961,0.467,7.073,1.4c2.111,0.935,3.87,2.3,5.278,4.1L186.815,9.1z"/>
</svg>
